{"accessors" : [{"bufferView" : 0, "byteOffset" : 0, "componentType" : 5123, "count" : 618, "type" : "SCALAR", "max" : [495], "min" : [0]}, {"bufferView" : 1, "byteOffset" : 0, "componentType" : 5126, "count" : 496, "type" : "VEC3", "max" : [0.04961521178483963, 1.744489073753357, 0.10888287425041199], "min" : [0.0114955585449934, 1.706427812576294, 0.08993692696094513], "name" : "POSITION"}, {"bufferView" : 1, "byteOffset" : 12, "componentType" : 5126, "count" : 496, "type" : "VEC2", "max" : [0.9646214246749878, 0.9818061590194702], "min" : [0.019903719425201416, 0.020990610122680664], "name" : "TEXCOORD_0"}, {"bufferView" : 1, "byteOffset" : 20, "componentType" : 5126, "count" : 496, "type" : "VEC3", "max" : [0.9406006932258606, 0.9512309432029724, 1.0000042915344238], "min" : [-0.9471116065979004, -0.9485120177268982, -1.0000042915344238], "name" : "NORMAL"}, {"bufferView" : 0, "byteOffset" : 1236, "componentType" : 5123, "count" : 618, "type" : "SCALAR", "max" : [500], "min" : [0]}, {"bufferView" : 2, "byteOffset" : 0, "componentType" : 5126, "count" : 501, "type" : "VEC3", "max" : [-0.011761696077883244, 1.7445282936096191, 0.10888288915157318], "min" : [-0.049729831516742706, 1.7063885927200317, 0.08993694931268692], "name" : "POSITION"}, {"bufferView" : 2, "byteOffset" : 12, "componentType" : 5126, "count" : 501, "type" : "VEC2", "max" : [0.9585750699043274, 0.966354489326477], "min" : [0.006885886192321777, 0.022762417793273926], "name" : "TEXCOORD_0"}, {"bufferView" : 2, "byteOffset" : 20, "componentType" : 5126, "count" : 501, "type" : "VEC3", "max" : [0.9310468435287476, 0.9478710293769836, 1.0000042915344238], "min" : [-0.9491647481918335, -0.9364743232727051, -1.0000042915344238], "name" : "NORMAL"}, {"bufferView" : 0, "byteOffset" : 2472, "componentType" : 5123, "count" : 12282, "type" : "SCALAR", "max" : [9739], "min" : [0]}, {"bufferView" : 3, "byteOffset" : 0, "componentType" : 5126, "count" : 9740, "type" : "VEC3", "max" : [0.09579431265592575, 1.8330844640731812, 0.14228112995624542], "min" : [-0.09610731154680252, 1.5206061601638794, -0.08657769858837128], "name" : "POSITION"}, {"bufferView" : 3, "byteOffset" : 12, "componentType" : 5126, "count" : 9740, "type" : "VEC2", "max" : [0.9943000078201294, 0.9807000160217285], "min" : [0.004999999888241291, 0.004350006580352783], "name" : "TEXCOORD_0"}, {"bufferView" : 3, "byteOffset" : 20, "componentType" : 5126, "count" : 9740, "type" : "VEC3", "max" : [0.9992218613624573, 0.9998693466186523, 0.9999847412109375], "min" : [-0.9992175102233887, -0.9999938011169434, -0.9999959468841553], "name" : "NORMAL"}, {"bufferView" : 0, "byteOffset" : 27036, "componentType" : 5123, "count" : 300, "type" : "SCALAR", "max" : [241], "min" : [0]}, {"bufferView" : 4, "byteOffset" : 0, "componentType" : 5126, "count" : 242, "type" : "VEC3", "max" : [0.028119578957557678, 1.6775461435317993, 0.1185414046049118], "min" : [-0.028119578957557678, 1.6422955989837646, 0.05147259682416916], "name" : "POSITION"}, {"bufferView" : 4, "byteOffset" : 12, "componentType" : 5126, "count" : 242, "type" : "VEC2", "max" : [0.9808249473571777, 0.983213484287262], "min" : [0.051069796085357666, 0.02829587459564209], "name" : "TEXCOORD_0"}, {"bufferView" : 4, "byteOffset" : 20, "componentType" : 5126, "count" : 242, "type" : "VEC3", "max" : [0.9971882700920105, 0.8775893449783325, 0.9974808692932129], "min" : [-0.9971882700920105, -0.9858413934707642, -0.7650182843208313], "name" : "NORMAL"}, {"bufferView" : 0, "byteOffset" : 27636, "componentType" : 5123, "count" : 5022, "type" : "SCALAR", "max" : [4025], "min" : [0]}, {"bufferView" : 5, "byteOffset" : 0, "componentType" : 5126, "count" : 4026, "type" : "VEC3", "max" : [0.5314632654190063, 1.1030892133712769, 0.1485920399427414], "min" : [-0.5314712524414062, 0.06424194574356079, -0.10406745225191116], "name" : "POSITION"}, {"bufferView" : 5, "byteOffset" : 12, "componentType" : 5126, "count" : 4026, "type" : "VEC3", "max" : [0.9990524649620056, 0.8005349040031433, 0.9933846592903137], "min" : [-0.9990529417991638, -0.9900128841400146, -0.9930083751678467], "name" : "NORMAL"}, {"bufferView" : 5, "byteOffset" : 24, "componentType" : 5126, "count" : 4026, "type" : "VEC2", "max" : [0.9857610464096069, 0.9892195463180542], "min" : [0.018731044605374336, 0.07936090230941772], "name" : "TEXCOORD_0"}, {"bufferView" : 0, "byteOffset" : 37680, "componentType" : 5123, "count" : 6708, "type" : "SCALAR", "max" : [5426], "min" : [0]}, {"bufferView" : 6, "byteOffset" : 0, "componentType" : 5126, "count" : 5427, "type" : "VEC3", "max" : [0.20717962086200714, 1.0897917747497559, 0.1464930772781372], "min" : [-0.20718689262866974, 0.07966994494199753, -0.12552759051322937], "name" : "POSITION"}, {"bufferView" : 6, "byteOffset" : 12, "componentType" : 5126, "count" : 5427, "type" : "VEC3", "max" : [0.9999433159828186, 0.9991070628166199, 0.9998027682304382], "min" : [-0.9999436736106873, -0.9971707463264465, -0.9994056224822998], "name" : "NORMAL"}, {"bufferView" : 6, "byteOffset" : 24, "componentType" : 5126, "count" : 5427, "type" : "VEC2", "max" : [0.9871932864189148, 0.9781097769737244], "min" : [0.013636048883199692, 0.009562909603118896], "name" : "TEXCOORD_0"}, {"bufferView" : 0, "byteOffset" : 51096, "componentType" : 5123, "count" : 3444, "type" : "SCALAR", "max" : [2743], "min" : [0]}, {"bufferView" : 7, "byteOffset" : 0, "componentType" : 5126, "count" : 2744, "type" : "VEC3", "max" : [0.22698141634464264, 0.13311751186847687, 0.22643902897834778], "min" : [-0.2269865870475769, -0.0008291188860312104, -0.11737999320030212], "name" : "POSITION"}, {"bufferView" : 7, "byteOffset" : 12, "componentType" : 5126, "count" : 2744, "type" : "VEC3", "max" : [0.9992478489875793, 0.987549901008606, 0.9957291483879089], "min" : [-0.9992498159408569, -0.9994369149208069, -0.9835727214813232], "name" : "NORMAL"}, {"bufferView" : 7, "byteOffset" : 24, "componentType" : 5126, "count" : 2744, "type" : "VEC2", "max" : [0.9900428652763367, 0.9804185628890991], "min" : [0.014865286648273468, 0.0112762451171875], "name" : "TEXCOORD_0"}, {"bufferView" : 0, "byteOffset" : 57984, "componentType" : 5123, "count" : 10113, "type" : "SCALAR", "max" : [8193], "min" : [0]}, {"bufferView" : 8, "byteOffset" : 0, "componentType" : 5126, "count" : 8194, "type" : "VEC3", "max" : [0.48584142327308655, 1.638156533241272, 0.16280463337898254], "min" : [-0.48584210872650146, 0.8586238026618958, -0.1508699506521225], "name" : "POSITION"}, {"bufferView" : 8, "byteOffset" : 12, "componentType" : 5126, "count" : 8194, "type" : "VEC3", "max" : [0.9993866682052612, 0.9998371601104736, 0.9997768402099609], "min" : [-0.999386727809906, -0.9990414381027222, -0.9993488192558289], "name" : "NORMAL"}, {"bufferView" : 8, "byteOffset" : 24, "componentType" : 5126, "count" : 8194, "type" : "VEC2", "max" : [0.9931854605674744, 0.9873619079589844], "min" : [0.009742564521729946, 0.010424256324768066], "name" : "TEXCOORD_0"}, {"bufferView" : 0, "byteOffset" : 78212, "componentType" : 5123, "count" : 3609, "type" : "SCALAR", "max" : [3043], "min" : [0]}, {"bufferView" : 9, "byteOffset" : 0, "componentType" : 5126, "count" : 3044, "type" : "VEC3", "max" : [0.09775179624557495, 1.863134741783142, 0.14080436527729034], "min" : [-0.10739278793334961, 1.6298915147781372, -0.08866449445486069], "name" : "POSITION"}, {"bufferView" : 9, "byteOffset" : 12, "componentType" : 5126, "count" : 3044, "type" : "VEC3", "max" : [0.9979795813560486, 0.9981088638305664, 0.9981746077537537], "min" : [-0.9975363612174988, -0.9987674951553345, -0.9923242330551147], "name" : "NORMAL"}, {"bufferView" : 9, "byteOffset" : 24, "componentType" : 5126, "count" : 3044, "type" : "VEC2", "max" : [0.9965007305145264, 0.9753868579864502], "min" : [0, 0.016377270221710205], "name" : "TEXCOORD_0"}], "asset" : {"generator" : "Aspose.3D 23.9.0", "version" : "2.0"}, "buffers" : [{"uri" : "data:application/octet-stream;base64,", "byteLength" : 1452320}], "bufferViews" : [{"buffer" : 0, "byteOffset" : 0, "byteLength" : 85432, "target" : 34963}, {"buffer" : 0, "byteOffset" : 85436, "byteLength" : 19776, "byteStride" : 32, "target" : 34962}, {"buffer" : 0, "byteOffset" : 105216, "byteLength" : 19776, "byteStride" : 32, "target" : 34962}, {"buffer" : 0, "byteOffset" : 124996, "byteLength" : 393024, "byteStride" : 32, "target" : 34962}, {"buffer" : 0, "byteOffset" : 518024, "byteLength" : 9600, "byteStride" : 32, "target" : 34962}, {"buffer" : 0, "byteOffset" : 527628, "byteLength" : 160704, "byteStride" : 32, "target" : 34962}, {"buffer" : 0, "byteOffset" : 688336, "byteLength" : 214656, "byteStride" : 32, "target" : 34962}, {"buffer" : 0, "byteOffset" : 902996, "byteLength" : 110208, "byteStride" : 32, "target" : 34962}, {"buffer" : 0, "byteOffset" : 1013208, "byteLength" : 323616, "byteStride" : 32, "target" : 34962}, {"buffer" : 0, "byteOffset" : 1336828, "byteLength" : 115488, "byteStride" : 32, "target" : 34962}], "images" : [{"uri" : "data:image/jpeg;base64,"}, {"uri" : "data:image/jpeg;base64,"}, {"uri" : "data:image/jpeg;base64,"}, {"uri" : "data:image/jpeg;base64,"}, {"uri" : "data:image/jpeg;base64,"}, {"uri" : "data:image/jpeg;base64,"}, {"uri" : "data:image/jpeg;base64,"}, {"uri" : "data:image/jpeg;base64,"}, {"uri" : "data:image/jpeg;base64,"}, {"uri" : "data:image/jpeg;base64,"}, {"uri" : "data:image/jpeg;base64,"}, {"uri" : "data:image/jpeg;base64,"}, {"uri" : "data:image/jpeg;base64,"}, {"uri" : "data:image/jpeg;base64,"}, {"uri" : "data:image/jpeg;base64,"}, {"uri" : "data:image/jpeg;base64,"}], "materials" : [{"name" : "Wolf3D_Eye", "pbrMetallicRoughness" : {"baseColorFactor" : [1, 1, 1, 1], "baseColorTexture" : {"index" : 0, "texCoord" : 0}, "metallicFactor" : 0, "roughnessFactor" : 1}, "emissiveFactor" : [0, 0, 0], "alphaMode" : "OPAQUE", "doubleSided" : false}, {"name" : "Wolf3D_Eye", "pbrMetallicRoughness" : {"baseColorFactor" : [1, 1, 1, 1], "baseColorTexture" : {"index" : 0, "texCoord" : 0}, "metallicFactor" : 0, "roughnessFactor" : 1}, "emissiveFactor" : [0, 0, 0], "alphaMode" : "OPAQUE", "doubleSided" : false}, {"name" : "Wolf3D_Skin", "pbrMetallicRoughness" : {"baseColorFactor" : [1, 1, 1, 1], "baseColorTexture" : {"index" : 1, "texCoord" : 0}, "metallicFactor" : 0, "roughnessFactor" : 0.699999988079071}, "emissiveFactor" : [0, 0, 0], "alphaMode" : "OPAQUE", "doubleSided" : false}, {"name" : "Wolf3D_Teeth", "pbrMetallicRoughness" : {"baseColorFactor" : [1, 1, 1, 1], "baseColorTexture" : {"index" : 2, "texCoord" : 0}, "metallicFactor" : 0, "roughnessFactor" : 1}, "emissiveFactor" : [0, 0, 0], "alphaMode" : "OPAQUE", "doubleSided" : true}, {"name" : "Wolf3D_Body", "pbrMetallicRoughness" : {"baseColorFactor" : [1, 1, 1, 1], "baseColorTexture" : {"index" : 4, "texCoord" : 0}, "metallicFactor" : 0, "roughnessFactor" : 0.6982409358024597}, "normalTexture" : {"index" : 3, "texCoord" : 0, "scale" : 1}, "emissiveFactor" : [0, 0, 0], "alphaMode" : "OPAQUE", "doubleSided" : false}, {"name" : "Wolf3D_Outfit_Bottom", "pbrMetallicRoughness" : {"baseColorFactor" : [1, 1, 1, 1], "baseColorTexture" : {"index" : 6, "texCoord" : 0}, "metallicFactor" : 1, "roughnessFactor" : 1, "metallicRoughnessTexture" : {"index" : 7, "texCoord" : 0}}, "normalTexture" : {"index" : 5, "texCoord" : 0, "scale" : 1}, "emissiveFactor" : [0, 0, 0], "alphaMode" : "OPAQUE", "doubleSided" : false}, {"name" : "Wolf3D_Outfit_Footwear", "pbrMetallicRoughness" : {"baseColorFactor" : [1, 1, 1, 1], "baseColorTexture" : {"index" : 9, "texCoord" : 0}, "metallicFactor" : 1, "roughnessFactor" : 1, "metallicRoughnessTexture" : {"index" : 10, "texCoord" : 0}}, "normalTexture" : {"index" : 8, "texCoord" : 0, "scale" : 1}, "emissiveFactor" : [0, 0, 0], "alphaMode" : "OPAQUE", "doubleSided" : false}, {"name" : "Wolf3D_Outfit_Top", "pbrMetallicRoughness" : {"baseColorFactor" : [1, 1, 1, 1], "baseColorTexture" : {"index" : 12, "texCoord" : 0}, "metallicFactor" : 1, "roughnessFactor" : 1, "metallicRoughnessTexture" : {"index" : 13, "texCoord" : 0}}, "normalTexture" : {"index" : 11, "texCoord" : 0, "scale" : 1}, "emissiveFactor" : [0, 0, 0], "alphaMode" : "OPAQUE", "doubleSided" : false}, {"name" : "Wolf3D_Hair", "pbrMetallicRoughness" : {"baseColorFactor" : [1, 1, 1, 1], "baseColorTexture" : {"index" : 15, "texCoord" : 0}, "metallicFactor" : 0, "roughnessFactor" : 0.8434659242630005}, "normalTexture" : {"index" : 14, "texCoord" : 0, "scale" : 1}, "emissiveFactor" : [0, 0, 0], "alphaMode" : "OPAQUE", "doubleSided" : false}], "meshes" : [{"primitives" : [{"attributes" : {"POSITION" : 1, "TEXCOORD_0" : 2, "NORMAL" : 3}, "indices" : 0, "material" : 0, "mode" : 4}]}, {"primitives" : [{"attributes" : {"POSITION" : 5, "TEXCOORD_0" : 6, "NORMAL" : 7}, "indices" : 4, "material" : 1, "mode" : 4}]}, {"primitives" : [{"attributes" : {"POSITION" : 9, "TEXCOORD_0" : 10, "NORMAL" : 11}, "indices" : 8, "material" : 2, "mode" : 4}]}, {"primitives" : [{"attributes" : {"POSITION" : 13, "TEXCOORD_0" : 14, "NORMAL" : 15}, "indices" : 12, "material" : 3, "mode" : 4}]}, {"primitives" : [{"attributes" : {"POSITION" : 17, "NORMAL" : 18, "TEXCOORD_0" : 19}, "indices" : 16, "material" : 4, "mode" : 4}]}, {"primitives" : [{"attributes" : {"POSITION" : 21, "NORMAL" : 22, "TEXCOORD_0" : 23}, "indices" : 20, "material" : 5, "mode" : 4}]}, {"primitives" : [{"attributes" : {"POSITION" : 25, "NORMAL" : 26, "TEXCOORD_0" : 27}, "indices" : 24, "material" : 6, "mode" : 4}]}, {"primitives" : [{"attributes" : {"POSITION" : 29, "NORMAL" : 30, "TEXCOORD_0" : 31}, "indices" : 28, "material" : 7, "mode" : 4}]}, {"primitives" : [{"attributes" : {"POSITION" : 33, "NORMAL" : 34, "TEXCOORD_0" : 35}, "indices" : 32, "material" : 8, "mode" : 4}]}], "nodes" : [{"mesh" : 0, "name" : "EyeLeft"}, {"mesh" : 1, "name" : "EyeRight"}, {"mesh" : 2, "name" : "Wolf3D_Head"}, {"mesh" : 3, "name" : "Wolf3D_Teeth"}, {"mesh" : 4, "name" : "Wolf3D_Body"}, {"mesh" : 5, "name" : "Wolf3D_Outfit_Bottom"}, {"mesh" : 6, "name" : "Wolf3D_Outfit_Footwear"}, {"mesh" : 7, "name" : "Wolf3D_Outfit_Top"}, {"mesh" : 8, "name" : "Wolf3D_Hair"}, {"children" : [0, 1, 2, 3, 4, 5, 6, 7, 8], "name" : "Armature"}], "samplers" : [{"magFilter" : 9728, "minFilter" : 9728, "wrapS" : 10497, "wrapT" : 10497}, {"magFilter" : 9728, "minFilter" : 9728, "wrapS" : 10497, "wrapT" : 10497}, {"magFilter" : 9729, "minFilter" : 9987, "wrapS" : 10497, "wrapT" : 10497}, {"magFilter" : 9729, "minFilter" : 9987, "wrapS" : 33071, "wrapT" : 33071}, {"magFilter" : 9728, "minFilter" : 9728, "wrapS" : 10497, "wrapT" : 10497}, {"magFilter" : 9729, "minFilter" : 9987, "wrapS" : 33071, "wrapT" : 33071}, {"magFilter" : 9729, "minFilter" : 9987, "wrapS" : 33071, "wrapT" : 33071}, {"magFilter" : 9729, "minFilter" : 9987, "wrapS" : 33071, "wrapT" : 33071}, {"magFilter" : 9729, "minFilter" : 9987, "wrapS" : 33071, "wrapT" : 33071}, {"magFilter" : 9729, "minFilter" : 9987, "wrapS" : 33071, "wrapT" : 33071}, {"magFilter" : 9729, "minFilter" : 9987, "wrapS" : 33071, "wrapT" : 33071}, {"magFilter" : 9729, "minFilter" : 9987, "wrapS" : 33071, "wrapT" : 33071}, {"magFilter" : 9729, "minFilter" : 9987, "wrapS" : 33071, "wrapT" : 33071}, {"magFilter" : 9729, "minFilter" : 9987, "wrapS" : 33071, "wrapT" : 33071}, {"magFilter" : 9729, "minFilter" : 9987, "wrapS" : 10497, "wrapT" : 10497}, {"magFilter" : 9728, "minFilter" : 9728, "wrapS" : 10497, "wrapT" : 10497}], "scene" : 0, "scenes" : [{"nodes" : [9]}], "textures" : [{"sampler" : 0, "source" : 0, "name" : ""}, {"sampler" : 1, "source" : 1, "name" : ""}, {"sampler" : 2, "source" : 2, "name" : ""}, {"sampler" : 3, "source" : 3, "name" : ""}, {"sampler" : 4, "source" : 4, "name" : ""}, {"sampler" : 5, "source" : 5, "name" : ""}, {"sampler" : 6, "source" : 6, "name" : ""}, {"sampler" : 7, "source" : 7, "name" : ""}, {"sampler" : 8, "source" : 8, "name" : ""}, {"sampler" : 9, "source" : 9, "name" : ""}, {"sampler" : 10, "source" : 10, "name" : ""}, {"sampler" : 11, "source" : 11, "name" : ""}, {"sampler" : 12, "source" : 12, "name" : ""}, {"sampler" : 13, "source" : 13, "name" : ""}, {"sampler" : 14, "source" : 14, "name" : ""}, {"sampler" : 15, "source" : 15, "name" : ""}]}